HIERARCHY
ROOT locator2
{
  OFFSET 53.6172 30.1899 0.816905
  CHANNELS 6 Xposition Yposition Zposition Zrotation Xrotation Yrotation
  JOINT koshi
  {
    OFFSET 0 0 0
    CHANNELS 6 Xposition Yposition Zposition Zrotation Xrotation Yrotation
    JOINT sippo01
    {
      OFFSET 0 42.8363 -0.548134
      CHANNELS 6 Xposition Yposition Zposition Zrotation Xrotation Yrotation
      JOINT sippo02
      {
        OFFSET 0 44.0461 -3.28882
        CHANNELS 6 Xposition Yposition Zposition Zrotation Xrotation Yrotation
        JOINT sippo03
        {
          OFFSET 0 34.1929 -2.46662
          CHANNELS 6 Xposition Yposition Zposition Zrotation Xrotation Yrotation
          JOINT sippo04
          {
            OFFSET 0 30.0959 -1.75404
            CHANNELS 6 Xposition Yposition Zposition Zrotation Xrotation Yrotation
            JOINT sippo05
            {
              OFFSET 0 28.3637 -1.75404
              CHANNELS 6 Xposition Yposition Zposition Zrotation Xrotation Yrotation
              JOINT sippo06
              {
                OFFSET 0 31.6071 -3.2043
                CHANNELS 6 Xposition Yposition Zposition Zrotation Xrotation Yrotation
                End Site
                {
                  OFFSET 0 0 0
                }
              }
            }
          }
        }
      }
    }
    JOINT R_momo
    {
      OFFSET -27.891 13.5892 3.92723
      CHANNELS 6 Xposition Yposition Zposition Zrotation Xrotation Yrotation
      JOINT R_hiza
      {
        OFFSET 0 28.01 1.8232
        CHANNELS 6 Xposition Yposition Zposition Zrotation Xrotation Yrotation
        JOINT R_ashi
        {
          OFFSET 0 24.3992 -2.49174
          CHANNELS 6 Xposition Yposition Zposition Zrotation Xrotation Yrotation
          End Site
          {
            OFFSET 0 0 0
          }
        }
      }
    }
    JOINT L_momo
    {
      OFFSET 27.891 13.5892 3.92714
      CHANNELS 6 Xposition Yposition Zposition Zrotation Xrotation Yrotation
      JOINT L_hiza
      {
        OFFSET 0 28.0098 1.82319
        CHANNELS 6 Xposition Yposition Zposition Zrotation Xrotation Yrotation
        JOINT L_ashi
        {
          OFFSET 0 24.3992 -2.49171
          CHANNELS 6 Xposition Yposition Zposition Zrotation Xrotation Yrotation
          End Site
          {
            OFFSET 0 0 0
          }
        }
      }
    }
  }
  JOINT hara
  {
    OFFSET 0 2.15392 0
    CHANNELS 6 Xposition Yposition Zposition Zrotation Xrotation Yrotation
    JOINT mune
    {
      OFFSET 0 62.0609 0.472494
      CHANNELS 6 Xposition Yposition Zposition Zrotation Xrotation Yrotation
      JOINT R_kata
      {
        OFFSET 22.6695 9.65301 -5.3622
        CHANNELS 6 Xposition Yposition Zposition Zrotation Xrotation Yrotation
        JOINT R_hiji
        {
          OFFSET 0 25.813 1.69098
          CHANNELS 6 Xposition Yposition Zposition Zrotation Xrotation Yrotation
          JOINT R_te
          {
            OFFSET 0 28.5636 -0.966307
            CHANNELS 6 Xposition Yposition Zposition Zrotation Xrotation Yrotation
            End Site
            {
              OFFSET 0 0 0
            }
          }
        }
      }
      JOINT L_kata
      {
        OFFSET -22.6695 9.65298 -5.3622
        CHANNELS 6 Xposition Yposition Zposition Zrotation Xrotation Yrotation
        JOINT L_hiji
        {
          OFFSET 0 25.813 1.69102
          CHANNELS 6 Xposition Yposition Zposition Zrotation Xrotation Yrotation
          JOINT L_te
          {
            OFFSET 0 28.5636 -0.966295
            CHANNELS 6 Xposition Yposition Zposition Zrotation Xrotation Yrotation
            End Site
            {
              OFFSET 0 0 0
            }
          }
        }
      }
      JOINT kubi
      {
        OFFSET 0 23.1438 -0.944988
        CHANNELS 6 Xposition Yposition Zposition Zrotation Xrotation Yrotation
        JOINT atama
        {
          OFFSET 0 20.8625 4.12737
          CHANNELS 6 Xposition Yposition Zposition Zrotation Xrotation Yrotation
          JOINT ago
          {
            OFFSET 0 7.552 -7.58201
            CHANNELS 6 Xposition Yposition Zposition Zrotation Xrotation Yrotation
            End Site
            {
              OFFSET 0 0 0
            }
          }
        }
      }
    }
  }
}
MOTION
Frames:	4
Frame Time:	0.0333333
16.6564 30.8571 0.875852 -90 -3.50835e-015 -90 0 0 0 -178.596 -2.97845 0.0849638 2.22045e-016 42.8363 -0.548134 -1.94923 -7.40218 7.87409 1.43051e-006 44.0461 -3.28882 -7.85903 20.5314 2.14446 0 34.1929 -2.46662 -9.7836 11.9544 -3.60042 7.62939e-006 30.0959 -1.75404 -9.0331 14.4664 -8.00386 -2.13163e-014 28.3637 -1.75404 -4.92714 -3.08135 5.85424 7.62939e-006 31.6071 -3.2043 -1.63305 -3.10499 -17.7682 -27.891 13.5892 3.92723 75.2739 -30.7748 -81.5435 7.10543e-015 28.01 1.8232 0.71325 -60.3944 -2.90686 3.8147e-006 24.3992 -2.49174 -131.597 70.4004 -167.128 27.891 13.5892 3.92714 -125.034 -19.2788 42.6612 -3.8147e-006 28.0098 1.82319 1.11095 -80.1971 -0.753237 -3.8147e-006 24.3992 -2.49171 134.753 81.0143 -173.852 6.55651e-007 2.15392 -3.55271e-015 2.12941 -3.75794 -1.31555 -2.38419e-007 62.0609 0.472494 2.28665e-008 -7.2016e-008 2.35477e-008 22.6695 9.65301 -5.3622 -137.805 -20.2342 55.8998 -7.10543e-015 25.813 1.69098 179.539 -67.9134 174.443 3.8147e-006 28.5636 -0.966308 29.7647 16.2055 -114.042 -22.6695 9.65298 -5.3622 92.4861 4.23955 -81.2236 -3.8147e-006 25.813 1.69102 179.875 -66.1743 178.377 3.8147e-006 28.5636 -0.966293 98.2395 71.7915 2.44948 -4.76837e-007 23.1438 -0.944988 1.16161 4.36408 -10.2651 0 20.8625 4.12737 5.21173 3.51684 -10.3372 7.10543e-015 7.552 -7.58201 -1.19652e-007 6.64262 2.02481e-006 
24.5823 30.1212 0.471321 -90 -3.50835e-015 -90 0 0 0 -176.843 -1.48916 0.22734 5.54223e-013 42.8363 -0.548134 -0.749241 -9.84064 6.79428 1.12995e-006 44.0461 -3.28883 -4.75549 23.4619 0.160998 -9.52589e-007 34.1929 -2.46662 -5.86377 8.77358 -4.45373 6.38401e-006 30.0959 -1.75404 -6.1928 12.9445 -6.72721 -1.71353e-006 28.3637 -1.75404 -1.78809 0.501582 5.8004 5.45789e-006 31.6071 -3.2043 -0.167447 3.20933 -14.867 -27.891 13.5892 3.92723 88.7033 -32.084 -74.7096 4.90332e-007 28.01 1.8232 0.599768 -76.5235 -0.984521 3.36873e-006 24.3992 -2.49174 -129.35 71.2694 -166.822 27.891 13.5892 3.92714 -117.286 -20.958 48.2995 -3.6653e-006 28.0098 1.82319 -1.81485 -80.0506 3.42169 -3.58232e-006 24.3992 -2.49171 144.676 72.651 172.77 6.55651e-007 2.15392 0 1.58241 -1.72626 -0.497324 -2.38419e-007 62.0609 0.472494 2.28665e-008 -7.2016e-008 2.35477e-008 22.6695 9.65301 -5.3622 -147.33 -11.8808 47.5864 4.96547e-007 25.813 1.69098 179.614 -67.6875 174.366 3.4724e-006 28.5636 -0.966309 34.1027 3.93703 -111.58 -22.6695 9.65298 -5.3622 80.3659 -31.0641 -85.1065 -3.62813e-006 25.813 1.69102 -179.583 -86.1482 -175.255 3.81607e-006 28.5636 -0.966294 -65.6781 76.1509 164.867 -4.76837e-007 23.1438 -0.944988 -0.129143 1.54468 -10.9408 -6.7449e-008 20.8625 4.12737 3.00637 1.12336 -12.3723 -2.0754e-007 7.552 -7.58201 -9.12897e-007 6.60305 1.55976e-006 
31.863 29.7559 0.0779261 -90 -3.50835e-015 -90 0 0 0 -175.12 -0.0348161 0.279702 6.54143e-013 42.8363 -0.548134 0.448595 -12.3489 5.69916 8.35019e-007 44.0461 -3.28883 -0.52403 20.6623 -2.64246 -2.33776e-006 34.1929 -2.46662 -0.915507 5.61281 -3.85402 4.65396e-006 30.0959 -1.754 -1.76369 11.4224 -4.60957 -4.60319e-006 28.3637 -1.75404 2.64745 2.52522 5.34264 1.18012e-006 31.6071 -3.20428 1.95621 4.04775 -11.441 -27.891 13.5892 3.92723 105.536 -26.569 -62.6488 4.94265e-007 28.01 1.8232 -176.446 -89.0586 -175.911 3.30937e-006 24.3992 -2.49174 -124.366 75.8061 -173.511 27.891 13.5892 3.92714 -110.329 -23.3407 53.662 -3.53987e-006 28.0098 1.82319 -3.34314 -75.9137 6.74047 -3.48421e-006 24.3992 -2.49172 144.316 69.218 170.515 6.55651e-007 2.15392 -7.10543e-015 -0.654627 -0.106721 -0.28247 -2.38419e-007 62.0609 0.472494 2.28655e-008 -7.2016e-008 2.35477e-008 22.6695 9.65301 -5.3622 -154.985 -6.0796 37.1546 8.35216e-007 25.813 1.69098 179.686 -67.4955 174.359 3.47049e-006 28.5636 -0.966309 41.6189 -5.55217 -106.484 -22.6695 9.65298 -5.3622 85.2236 -43.816 -81.8417 -3.71625e-006 25.813 1.69102 -2.01343 -86.7017 6.68232 4.12269e-006 28.5636 -0.966294 -64.7896 51.018 156.498 -4.76837e-007 23.1438 -0.944988 -1.39237 -0.491076 -11.002 -1.41952e-007 20.8625 4.12737 0.658041 -0.618251 -13.1551 -4.06879e-007 7.552 -7.58201 -1.18279e-007 6.60305 2.02494e-006 
39.272 29.9499 -0.319363 -90 -3.50835e-015 -90 0 0 0 -173.375 1.5152 0.233661 7.2653e-013 42.8363 -0.548134 1.6829 -14.8755 4.70379 5.36225e-007 44.0461 -3.28883 3.52565 14.0441 -4.78423 -3.61261e-006 34.1929 -2.46661 4.02413 2.37004 -2.68576 3.30521e-006 30.0959 -1.75403 2.66401 10.4895 -2.25094 -6.96499e-006 28.3637 -1.75403 7.12141 0.446887 5.0734 -1.95058e-006 31.6071 -3.2043 4.09236 -1.18722 -7.60899 -27.891 13.5892 3.92723 117.045 -22.6309 -54.8663 5.42355e-007 28.01 1.8232 -176.158 -83.2412 -170.644 3.5821e-006 24.3992 -2.49174 -113.216 79.7482 173.758 27.891 13.5892 3.92714 -102.879 -25.7374 60.1824 -3.41402e-006 28.0098 1.82319 -3.75167 -69.4776 9.43842 -3.43622e-006 24.3992 -2.49172 143.94 65.7692 166.693 6.55651e-007 2.15392 0 -3.52178 -1.35884 -1.45878 -2.38419e-007 62.0609 0.472494 -9.99504e-006 -7.20028e-008 2.35478e-008 22.6695 9.65301 -5.3622 -154.992 3.88882 29.2534 1.49447e-006 25.813 1.69098 179.805 -61.4537 174.404 3.19784e-006 28.5636 -0.96631 47.3107 -6.44416 -106.984 -22.6695 9.65298 -5.3622 108.733 -28.3365 -66.8716 -4.2016e-006 25.813 1.69103 -178.763 -80.7346 -172.884 4.37561e-006 28.5636 -0.966294 -62.3454 52.2055 145.53 -4.76838e-007 23.1438 -0.944988 -5.33489 0.330891 -11.0057 -4.8972e-007 20.8625 4.12737 1.05304 -0.492758 -10.7227 -4.95828e-007 7.552 -7.58201 -1.61501e-007 6.51458 2.43328e-006 
